<svg width="83" height="83" viewBox="0 0 83 83" fill="none" xmlns="http://www.w3.org/2000/svg">
<path fill-rule="evenodd" clip-rule="evenodd" d="M20.875 0.25C15.4049 0.25 10.1589 2.42298 6.29092 6.29092C2.42298 10.1589 0.25 15.4049 0.25 20.875V62.125C0.25 67.5951 2.42298 72.8411 6.29092 76.7091C10.1589 80.577 15.4049 82.75 20.875 82.75H62.125C67.5951 82.75 72.8411 80.577 76.7091 76.7091C80.577 72.8411 82.75 67.5951 82.75 62.125V20.875C82.75 15.4049 80.577 10.1589 76.7091 6.29092C72.8411 2.42298 67.5951 0.25 62.125 0.25H20.875ZM56.8862 36.0715C57.2568 35.6761 57.5458 35.2115 57.7368 34.7044C57.9278 34.1972 58.017 33.6574 57.9994 33.1158C57.9818 32.5742 57.8576 32.0414 57.6341 31.5477C57.4105 31.0541 57.0919 30.6093 56.6965 30.2388C56.3011 29.8682 55.8365 29.5792 55.3294 29.3882C54.8222 29.1972 54.2824 29.108 53.7408 29.1256C53.1992 29.1432 52.6664 29.2674 52.1727 29.4909C51.6791 29.7145 51.2343 30.0331 50.8638 30.4285L38.1464 43.9997L31.864 38.4186C31.0409 37.7344 29.984 37.3968 28.9167 37.4774C27.8493 37.5579 26.8551 38.0502 26.144 38.8502C25.4328 39.6502 25.0605 40.6953 25.1057 41.7647C25.1509 42.8342 25.61 43.8442 26.386 44.5814L35.6673 52.8314C36.4703 53.5447 37.52 53.9167 38.5931 53.8682C39.6661 53.8196 40.678 53.3544 41.4134 52.5715L56.8821 36.0715H56.8862Z" fill="#A285DE"/>
</svg>
