<svg width="51" height="54" viewBox="0 0 51 54" fill="none" xmlns="http://www.w3.org/2000/svg">
<path d="M50.0488 11.8537C50.0487 12.4988 49.8118 13.1216 49.3831 13.6037C48.9544 14.0859 48.3636 14.3939 47.7228 14.4694L47.4146 14.4878H45.1888L41.9461 47.4673C41.7696 49.2568 40.9338 50.9167 39.6012 52.1241C38.2687 53.3316 36.5347 54.0002 34.7365 54H15.3123C13.5141 54.0002 11.7801 53.3316 10.4476 52.1241C9.11501 50.9167 8.27919 49.2568 8.10264 47.4673L4.86 14.4878H2.63415C1.93553 14.4878 1.26552 14.2103 0.771524 13.7163C0.277525 13.2223 0 12.5523 0 11.8537C0 11.155 0.277525 10.485 0.771524 9.99104C1.26552 9.49704 1.93553 9.21951 2.63415 9.21951H15.8049C15.8049 8.00879 16.0433 6.80992 16.5067 5.69136C16.97 4.5728 17.6491 3.55644 18.5052 2.70033C19.3613 1.84422 20.3777 1.16512 21.4962 0.701794C22.6148 0.23847 23.8137 0 25.0244 0C26.2351 0 27.434 0.23847 28.5525 0.701794C29.6711 1.16512 30.6875 1.84422 31.5436 2.70033C32.3997 3.55644 33.0788 4.5728 33.5421 5.69136C34.0054 6.80992 34.2439 8.00879 34.2439 9.21951H47.4146C48.1133 9.21951 48.7833 9.49704 49.2773 9.99104C49.7713 10.485 50.0488 11.155 50.0488 11.8537ZM30.9512 20.4146C30.4738 20.4147 30.0126 20.5875 29.6528 20.9013C29.293 21.2151 29.059 21.6486 28.994 22.1216L28.9756 22.3902V40.8293L28.994 41.0979C29.0591 41.5708 29.2932 42.0041 29.6529 42.3178C30.0127 42.6315 30.4739 42.8043 30.9512 42.8043C31.4285 42.8043 31.8897 42.6315 32.2495 42.3178C32.6093 42.0041 32.8433 41.5708 32.9084 41.0979L32.9268 40.8293V22.3902L32.9084 22.1216C32.8435 21.6486 32.6095 21.2151 32.2497 20.9013C31.8899 20.5875 31.4286 20.4147 30.9512 20.4146ZM19.0976 20.4146C18.6202 20.4147 18.1589 20.5875 17.7991 20.9013C17.4393 21.2151 17.2053 21.6486 17.1404 22.1216L17.122 22.3902V40.8293L17.1404 41.0979C17.2055 41.5708 17.4395 42.0041 17.7993 42.3178C18.1591 42.6315 18.6202 42.8043 19.0976 42.8043C19.5749 42.8043 20.0361 42.6315 20.3958 42.3178C20.7556 42.0041 20.9897 41.5708 21.0547 41.0979L21.0732 40.8293V22.3902L21.0547 22.1216C20.9898 21.6486 20.7558 21.2151 20.396 20.9013C20.0362 20.5875 19.575 20.4147 19.0976 20.4146ZM25.0244 5.26829C23.9765 5.26829 22.9715 5.68458 22.2305 6.42558C21.4895 7.16658 21.0732 8.17158 21.0732 9.21951H28.9756C28.9756 8.17158 28.5593 7.16658 27.8183 6.42558C27.0773 5.68458 26.0723 5.26829 25.0244 5.26829Z" fill="#002642"/>
</svg>
