<svg width="129" height="109" viewBox="0 0 129 109" fill="none" xmlns="http://www.w3.org/2000/svg">
<path fill-rule="evenodd" clip-rule="evenodd" d="M122.178 5.75987C117.81 2.07189 111.886 0 105.708 0H23.2917C17.1143 0 11.19 2.07189 6.82197 5.75987C2.45394 9.44785 0 14.4498 0 19.6654V89.2507C0 94.4663 2.45394 99.4683 6.82197 103.156C11.19 106.844 17.1143 108.916 23.2917 108.916H105.708C111.886 108.916 117.81 106.844 122.178 103.156C126.546 99.4683 129 94.4663 129 89.2507V19.6654C129 14.4498 126.546 9.44785 122.178 5.75987ZM30.241 25.5328C31.249 24.6817 32.6161 24.2036 34.0417 24.2036C35.4672 24.2036 36.8344 24.6817 37.8424 25.5328C38.8504 26.3839 39.4167 27.5382 39.4167 28.7418V80.1744C39.4167 81.378 38.8504 82.5323 37.8424 83.3834C36.8344 84.2345 35.4672 84.7126 34.0417 84.7126C32.6161 84.7126 31.249 84.2345 30.241 83.3834C29.233 82.5323 28.6667 81.378 28.6667 80.1744V28.7418C28.6667 27.5382 29.233 26.3839 30.241 25.5328ZM51.7545 25.2011V91.0273C51.7542 91.4506 51.8616 91.8668 52.0661 92.2348C52.2707 92.6027 52.5653 92.9098 52.921 93.1259C53.2767 93.3419 53.6813 93.4593 54.0948 93.4667C54.5083 93.4741 54.9166 93.3711 55.2795 93.1678L80.3353 79.1737L105.391 93.1678C105.754 93.3711 106.162 93.4741 106.576 93.4667C106.989 93.4593 107.394 93.3419 107.75 93.1259C108.105 92.9098 108.4 92.6027 108.605 92.2348C108.809 91.8668 108.916 91.4506 108.916 91.0273V25.2011C108.916 22.6147 107.912 20.1343 106.126 18.3054C104.339 16.4765 101.916 15.4491 99.3892 15.4491H61.2814C58.7547 15.4491 56.3315 16.4765 54.5449 18.3054C52.7582 20.1343 51.7545 22.6147 51.7545 25.2011ZM80.7847 35.0851C80.9195 35.1713 81.0278 35.2945 81.0975 35.4407L84.1175 41.7015C84.178 41.8283 84.2677 41.938 84.3789 42.0213C84.4901 42.1046 84.6195 42.1588 84.7558 42.1794L91.52 43.1839C91.6757 43.208 91.8217 43.2761 91.9418 43.3805C92.0618 43.4849 92.151 43.6215 92.1995 43.7749C92.248 43.9283 92.2537 44.0924 92.2162 44.249C92.1786 44.4056 92.0992 44.5483 91.9868 44.6613L87.0899 49.5422C86.9922 49.6412 86.9194 49.7631 86.8779 49.8973C86.8364 50.0315 86.8274 50.174 86.8518 50.3126L88.0045 57.2121C88.0298 57.3707 88.0116 57.5333 87.9519 57.6819C87.8922 57.8305 87.7935 57.9592 87.6666 58.0537C87.5397 58.1482 87.3896 58.2048 87.2331 58.2172C87.0767 58.2296 86.9199 58.1973 86.7803 58.124L80.7307 54.8668C80.6094 54.8018 80.4746 54.7679 80.3377 54.7679C80.2008 54.7679 80.066 54.8018 79.9447 54.8668L73.8951 58.124C73.7554 58.1987 73.598 58.232 73.4408 58.2203C73.2835 58.2085 73.1326 58.1521 73.0049 58.0574C72.8773 57.9627 72.7779 57.8334 72.7181 57.6841C72.6582 57.5348 72.6402 57.3713 72.6661 57.2121L73.8141 50.3175C73.8618 50.0346 73.7713 49.747 73.5712 49.5471L68.6839 44.6662C68.5715 44.5532 68.4921 44.4105 68.4545 44.2539C68.4169 44.0973 68.4227 43.9331 68.4712 43.7797C68.5196 43.6263 68.6089 43.4898 68.7289 43.3854C68.8489 43.281 68.995 43.2129 69.1507 43.1887L75.9148 42.1843C76.0511 42.1637 76.1805 42.1094 76.2917 42.0262C76.403 41.9429 76.4927 41.8332 76.5531 41.7064L79.5732 35.4407C79.6428 35.2945 79.7512 35.1713 79.8859 35.0851C80.0207 34.9989 80.1764 34.9531 80.3353 34.9531C80.4942 34.9531 80.6499 34.9989 80.7847 35.0851Z" fill="white"/>
</svg>
