<svg width="384" height="114" viewBox="0 0 384 114" fill="none" xmlns="http://www.w3.org/2000/svg">
<path d="M21.7871 93.3891H26.3391L40.8897 62.3813L55.5571 93.3891H60.148L81.0792 30.2842H63.0659L54.4289 58.9187L41.59 30.401H40.3451L27.5062 58.9965L18.8303 30.2842H0.817017L21.7871 93.3891ZM87.3819 93H104.033V30.2842H87.3819V93ZM134.496 93.8559C147.063 93.8559 158.19 86.425 158.19 74.481C158.19 65.2214 151.693 59.23 141.889 55.106C135.119 52.2659 130.684 51.3322 130.684 48.4531C130.684 46.3133 133.135 44.5626 136.558 44.5626C139.554 44.5626 144.379 46.0021 146.246 49.3091L155.856 40.0495C153.405 33.8636 145.935 29.3505 136.364 29.3505C124.459 29.3505 114.149 37.0927 114.149 47.9474C114.149 57.4014 120.957 62.6148 128.894 66.0385C135.041 68.7618 141.461 71.6019 141.461 74.8311C141.461 77.3989 137.998 78.6828 134.458 78.6828C129.205 78.6828 124.342 76.3484 121.735 72.4968L111.659 82.3788C114.81 89.304 124.187 93.8559 134.496 93.8559ZM201.103 30.2842V53.8221H182.467V30.2842H165.815V93H182.467V69.3843H201.103V93H217.715V30.2842H201.103Z" fill="white"/>
<path d="M233.178 92V29.1325H246.338V80.5437H277.488V92H233.178ZM281.178 92V45.4174H293.487V92H281.178ZM281.178 39.8313V28.375H293.487V39.8313H281.178ZM327.134 59.5248C326.819 57.2524 325.998 55.6744 324.673 54.7908C323.347 53.844 321.264 53.3706 318.424 53.3706C316.088 53.3706 314.289 53.6862 313.027 54.3174C311.765 54.8854 311.133 55.8638 311.133 57.2524C311.133 58.6411 311.765 59.7141 313.027 60.4716C314.289 61.1659 316.183 61.8602 318.708 62.5545C321.359 63.312 323.884 64.0063 326.282 64.6375C328.681 65.2056 330.795 65.8368 332.626 66.5311C335.087 67.541 336.981 68.9296 338.306 70.697C339.632 72.4012 340.295 74.7682 340.295 77.798C340.295 82.6582 338.559 86.4454 335.087 89.1596C331.679 91.8738 326.629 93.2308 319.939 93.2308C312.743 93.2308 307.22 91.716 303.37 88.6862C299.582 85.6564 297.626 81.7746 297.499 77.0406H310.187C310.187 79.2498 311.039 80.954 312.743 82.1533C314.447 83.3526 316.814 83.9522 319.844 83.9522C322.053 83.9522 323.978 83.605 325.619 82.9107C327.26 82.1533 328.081 80.8909 328.081 79.1235C328.081 77.4824 327.324 76.3147 325.809 75.6204C324.357 74.926 322.621 74.3264 320.601 73.8214C316.688 72.8746 313.532 72.0225 311.133 71.2651C308.735 70.5076 306.715 69.5924 305.074 68.5194C302.865 67.1307 301.318 65.5527 300.434 63.7854C299.614 62.018 299.204 60.0928 299.204 58.0099C299.204 56.0532 299.551 54.2227 300.245 52.5184C300.939 50.8142 302.076 49.3624 303.654 48.1632C305.232 46.9008 307.251 45.9224 309.713 45.2281C312.238 44.5338 315.268 44.1866 318.802 44.1866C325.556 44.1866 330.511 45.4806 333.667 48.0685C336.886 50.6564 338.654 54.4752 338.969 59.5248H327.134ZM369.629 61.3237H381.085V74.5789C381.085 77.0406 380.706 79.4076 379.949 81.6799C379.254 83.8891 378.118 85.8774 376.54 87.6447C375.025 89.349 373.069 90.706 370.67 91.716C368.335 92.7259 365.526 93.2308 362.243 93.2308C358.835 93.2308 355.931 92.7259 353.533 91.716C351.134 90.706 349.146 89.349 347.568 87.6447C346.053 85.9405 344.949 83.9522 344.254 81.6799C343.56 79.4076 343.213 77.009 343.213 74.4842V32.825H355.332V45.4174H381.085V54.128H355.332V73.2534C355.332 76.22 355.868 78.5239 356.941 80.165C358.078 81.743 359.908 82.532 362.433 82.532C364.895 82.532 366.693 81.743 367.83 80.165C369.029 78.587 369.629 76.3462 369.629 73.4427V61.3237Z" fill="#A285DE"/>
</svg>
